<svg width="31" height="31" viewBox="0 0 31 31" fill="none" xmlns="http://www.w3.org/2000/svg">
<path d="M18.0334 12.8061V10.7061C18.7238 10.4179 19.4299 10.2017 20.1516 10.0576C20.8734 9.91349 21.6318 9.84144 22.4267 9.84144C22.9707 9.84144 23.5041 9.88261 24.0272 9.96496C24.5502 10.0473 25.0627 10.1503 25.5648 10.2738V12.2502C25.0627 12.0649 24.5554 11.926 24.0428 11.8333C23.5303 11.7407 22.9916 11.6944 22.4267 11.6944C21.6318 11.6944 20.8682 11.7922 20.1359 11.9877C19.4037 12.1833 18.7029 12.4561 18.0334 12.8061ZM18.0334 19.6002V17.5002C18.7238 17.212 19.4299 16.9958 20.1516 16.8517C20.8734 16.7076 21.6318 16.6355 22.4267 16.6355C22.9707 16.6355 23.5041 16.6767 24.0272 16.759C24.5502 16.8414 25.0627 16.9443 25.5648 17.0678V19.0443C25.0627 18.859 24.5554 18.72 24.0428 18.6274C23.5303 18.5347 22.9916 18.4884 22.4267 18.4884C21.6318 18.4884 20.8682 18.5811 20.1359 18.7664C19.4037 18.9516 18.7029 19.2296 18.0334 19.6002ZM18.0334 16.2031V14.1032C18.7238 13.8149 19.4299 13.5988 20.1516 13.4546C20.8734 13.3105 21.6318 13.2385 22.4267 13.2385C22.9707 13.2385 23.5041 13.2796 24.0272 13.362C24.5502 13.4443 25.0627 13.5473 25.5648 13.6708V15.6473C25.0627 15.462 24.5554 15.323 24.0428 15.2304C23.5303 15.1377 22.9916 15.0914 22.4267 15.0914C21.6318 15.0914 20.8682 15.1892 20.1359 15.3848C19.4037 15.5804 18.7029 15.8531 18.0334 16.2031ZM8.6192 20.3413C9.60247 20.3413 10.5596 20.4494 11.4905 20.6656C12.4215 20.8818 13.3472 21.206 14.2677 21.6384V9.47085C13.41 8.97674 12.5 8.60615 11.5376 8.3591C10.5753 8.11204 9.60247 7.98851 8.6192 7.98851C7.86607 7.98851 7.11816 8.06057 6.37548 8.20469C5.6328 8.3488 4.91628 8.56498 4.2259 8.85321V21.0825C4.95812 20.8355 5.6851 20.6502 6.40686 20.5266C7.12862 20.4031 7.86607 20.3413 8.6192 20.3413ZM16.7782 21.6384C17.6987 21.206 18.6244 20.8818 19.5554 20.6656C20.4864 20.4494 21.4435 20.3413 22.4267 20.3413C23.1799 20.3413 23.9173 20.4031 24.6391 20.5266C25.3608 20.6502 26.0878 20.8355 26.82 21.0825V8.85321C26.1297 8.56498 25.4131 8.3488 24.6705 8.20469C23.9278 8.06057 23.1799 7.98851 22.4267 7.98851C21.4435 7.98851 20.4707 8.11204 19.5083 8.3591C18.546 8.60615 17.6359 8.97674 16.7782 9.47085V21.6384ZM15.523 25.2825C14.5188 24.5001 13.4309 23.8928 12.2594 23.4604C11.0878 23.0281 9.87443 22.8119 8.6192 22.8119C7.74054 22.8119 6.87757 22.9251 6.03029 23.1516C5.18301 23.3781 4.37234 23.6972 3.59828 24.109C3.15895 24.3354 2.73531 24.3251 2.32736 24.0781C1.91941 23.831 1.71544 23.4707 1.71544 22.9972V8.11204C1.71544 7.88557 1.77297 7.6694 1.88803 7.46352C2.0031 7.25763 2.17569 7.10322 2.40582 7.00028C3.36816 6.50617 4.37234 6.13559 5.41837 5.88853C6.46439 5.64147 7.53134 5.51794 8.6192 5.51794C9.83259 5.51794 11.0198 5.67235 12.1809 5.98118C13.342 6.29 14.456 6.75323 15.523 7.37087C16.5899 6.75323 17.7039 6.29 18.865 5.98118C20.0261 5.67235 21.2133 5.51794 22.4267 5.51794C23.5146 5.51794 24.5815 5.64147 25.6276 5.88853C26.6736 6.13559 27.6778 6.50617 28.6401 7.00028C28.8702 7.10322 29.0428 7.25763 29.1579 7.46352C29.273 7.6694 29.3305 7.88557 29.3305 8.11204V22.9972C29.3305 23.4707 29.1265 23.831 28.7186 24.0781C28.3106 24.3251 27.887 24.3354 27.4477 24.109C26.6736 23.6972 25.8629 23.3781 25.0156 23.1516C24.1684 22.9251 23.3054 22.8119 22.4267 22.8119C21.1715 22.8119 19.9581 23.0281 18.7866 23.4604C17.615 23.8928 16.5272 24.5001 15.523 25.2825Z" fill="url(#paint0_linear_57_50)"/>
<defs>
<linearGradient id="paint0_linear_57_50" x1="15.523" y1="5.51794" x2="15.523" y2="25.2825" gradientUnits="userSpaceOnUse">
<stop offset="0.025" stop-color="#3F2EFD"/>
<stop offset="0.9999" stop-color="#4EE9F2"/>
<stop offset="1" stop-color="#52CDF3" stop-opacity="0"/>
</linearGradient>
</defs>
</svg>
