<svg width="31" height="31" viewBox="0 0 31 31" fill="none" xmlns="http://www.w3.org/2000/svg">
<path d="M15.3974 27.8187L21.1087 13.082H23.7447L29.456 27.8187H26.82L25.4707 24.0731H19.3828L18.0334 27.8187H15.3974ZM5.48113 24.1345L3.72381 22.4152L10.0627 16.2135C9.3305 15.4972 8.66628 14.6785 8.07004 13.7574C7.47381 12.8364 6.92464 11.7925 6.42255 10.6259H9.05854C9.47695 11.4241 9.89536 12.12 10.3138 12.7136C10.7322 13.3071 11.2343 13.9007 11.82 14.4943C12.5104 13.8188 13.2269 12.8722 13.9696 11.6544C14.7123 10.4366 15.2719 9.27503 15.6485 8.16979H1.71544V5.71368H10.5021V3.25757H13.0125V5.71368H21.7991V8.16979H18.159C17.7196 9.64345 17.0606 11.1581 16.182 12.7136C15.3033 14.2691 14.4351 15.4562 13.5774 16.2749L16.5899 19.2837L15.6485 21.8012L11.82 17.9635L5.48113 24.1345ZM20.1673 21.924H24.6862L22.4267 15.6609L20.1673 21.924Z" fill="url(#paint0_linear_57_44)"/>
<defs>
<linearGradient id="paint0_linear_57_44" x1="15.5857" y1="3.25757" x2="15.5857" y2="27.8187" gradientUnits="userSpaceOnUse">
<stop offset="0.025" stop-color="#3F2EFD"/>
<stop offset="0.9999" stop-color="#4EE9F2"/>
<stop offset="1" stop-color="#52CDF3" stop-opacity="0"/>
</linearGradient>
</defs>
</svg>
