<svg width="373" height="63" viewBox="0 0 373 63" fill="none" xmlns="http://www.w3.org/2000/svg">
<path d="M20.992 24.344H17.6V45.784H21.76V47H0.960007V45.784H5.12001V3.416H0.960007V2.2H20.288C25.8347 2.2 29.76 2.49867 32.064 3.096C34.4107 3.65067 36.0533 4.33333 36.992 5.144C39.04 6.808 40.064 9.45334 40.064 13.08C40.064 16.7067 39.168 19.3093 37.376 20.888C35.584 22.424 32.8533 23.3413 29.184 23.64V23.832C32.64 24.3013 35.0507 25.3253 36.416 26.904C37.7813 28.4827 38.464 31.128 38.464 34.84V38.232C38.464 40.4507 38.5707 41.944 38.784 42.712C39.04 43.48 39.552 43.864 40.32 43.864C41.088 43.864 41.6853 43.5227 42.112 42.84C42.5813 42.1147 43.008 40.6213 43.392 38.36L44.48 38.488C44.0107 42.1147 43.1787 44.5467 41.984 45.784C40.832 47.0213 38.5067 47.64 35.008 47.64C31.5093 47.64 29.0133 46.8293 27.52 45.208C26.0693 43.544 25.344 40.4507 25.344 35.928V31.256C25.344 28.8667 25.024 27.1173 24.384 26.008C23.7867 24.8987 22.656 24.344 20.992 24.344ZM17.6 3.416V23.128H19.648C22.08 23.128 23.872 22.3813 25.024 20.888C26.2187 19.3947 26.816 16.9627 26.816 13.592V11.736C26.816 8.36533 26.24 6.14667 25.088 5.08C23.9787 3.97067 22.1867 3.416 19.712 3.416H17.6Z" fill="#B5104C"/>
<path d="M20.992 24.344H17.6V45.784H21.76V47H0.960007V45.784H5.12001V3.416H0.960007V2.2H20.288C25.8347 2.2 29.76 2.49867 32.064 3.096C34.4107 3.65067 36.0533 4.33333 36.992 5.144C39.04 6.808 40.064 9.45334 40.064 13.08C40.064 16.7067 39.168 19.3093 37.376 20.888C35.584 22.424 32.8533 23.3413 29.184 23.64V23.832C32.64 24.3013 35.0507 25.3253 36.416 26.904C37.7813 28.4827 38.464 31.128 38.464 34.84V38.232C38.464 40.4507 38.5707 41.944 38.784 42.712C39.04 43.48 39.552 43.864 40.32 43.864C41.088 43.864 41.6853 43.5227 42.112 42.84C42.5813 42.1147 43.008 40.6213 43.392 38.36L44.48 38.488C44.0107 42.1147 43.1787 44.5467 41.984 45.784C40.832 47.0213 38.5067 47.64 35.008 47.64C31.5093 47.64 29.0133 46.8293 27.52 45.208C26.0693 43.544 25.344 40.4507 25.344 35.928V31.256C25.344 28.8667 25.024 27.1173 24.384 26.008C23.7867 24.8987 22.656 24.344 20.992 24.344ZM17.6 3.416V23.128H19.648C22.08 23.128 23.872 22.3813 25.024 20.888C26.2187 19.3947 26.816 16.9627 26.816 13.592V11.736C26.816 8.36533 26.24 6.14667 25.088 5.08C23.9787 3.97067 22.1867 3.416 19.712 3.416H17.6Z" fill="#88133D"/>
<path d="M20.992 24.344H17.6V45.784H21.76V47H0.960007V45.784H5.12001V3.416H0.960007V2.2H20.288C25.8347 2.2 29.76 2.49867 32.064 3.096C34.4107 3.65067 36.0533 4.33333 36.992 5.144C39.04 6.808 40.064 9.45334 40.064 13.08C40.064 16.7067 39.168 19.3093 37.376 20.888C35.584 22.424 32.8533 23.3413 29.184 23.64V23.832C32.64 24.3013 35.0507 25.3253 36.416 26.904C37.7813 28.4827 38.464 31.128 38.464 34.84V38.232C38.464 40.4507 38.5707 41.944 38.784 42.712C39.04 43.48 39.552 43.864 40.32 43.864C41.088 43.864 41.6853 43.5227 42.112 42.84C42.5813 42.1147 43.008 40.6213 43.392 38.36L44.48 38.488C44.0107 42.1147 43.1787 44.5467 41.984 45.784C40.832 47.0213 38.5067 47.64 35.008 47.64C31.5093 47.64 29.0133 46.8293 27.52 45.208C26.0693 43.544 25.344 40.4507 25.344 35.928V31.256C25.344 28.8667 25.024 27.1173 24.384 26.008C23.7867 24.8987 22.656 24.344 20.992 24.344ZM17.6 3.416V23.128H19.648C22.08 23.128 23.872 22.3813 25.024 20.888C26.2187 19.3947 26.816 16.9627 26.816 13.592V11.736C26.816 8.36533 26.24 6.14667 25.088 5.08C23.9787 3.97067 22.1867 3.416 19.712 3.416H17.6Z" fill="#262626"/>
<path d="M20.992 24.344H17.6V45.784H21.76V47H0.960007V45.784H5.12001V3.416H0.960007V2.2H20.288C25.8347 2.2 29.76 2.49867 32.064 3.096C34.4107 3.65067 36.0533 4.33333 36.992 5.144C39.04 6.808 40.064 9.45334 40.064 13.08C40.064 16.7067 39.168 19.3093 37.376 20.888C35.584 22.424 32.8533 23.3413 29.184 23.64V23.832C32.64 24.3013 35.0507 25.3253 36.416 26.904C37.7813 28.4827 38.464 31.128 38.464 34.84V38.232C38.464 40.4507 38.5707 41.944 38.784 42.712C39.04 43.48 39.552 43.864 40.32 43.864C41.088 43.864 41.6853 43.5227 42.112 42.84C42.5813 42.1147 43.008 40.6213 43.392 38.36L44.48 38.488C44.0107 42.1147 43.1787 44.5467 41.984 45.784C40.832 47.0213 38.5067 47.64 35.008 47.64C31.5093 47.64 29.0133 46.8293 27.52 45.208C26.0693 43.544 25.344 40.4507 25.344 35.928V31.256C25.344 28.8667 25.024 27.1173 24.384 26.008C23.7867 24.8987 22.656 24.344 20.992 24.344ZM17.6 3.416V23.128H19.648C22.08 23.128 23.872 22.3813 25.024 20.888C26.2187 19.3947 26.816 16.9627 26.816 13.592V11.736C26.816 8.36533 26.24 6.14667 25.088 5.08C23.9787 3.97067 22.1867 3.416 19.712 3.416H17.6Z" fill="black" fill-opacity="0.2"/>
<path d="M20.992 24.344H17.6V45.784H21.76V47H0.960007V45.784H5.12001V3.416H0.960007V2.2H20.288C25.8347 2.2 29.76 2.49867 32.064 3.096C34.4107 3.65067 36.0533 4.33333 36.992 5.144C39.04 6.808 40.064 9.45334 40.064 13.08C40.064 16.7067 39.168 19.3093 37.376 20.888C35.584 22.424 32.8533 23.3413 29.184 23.64V23.832C32.64 24.3013 35.0507 25.3253 36.416 26.904C37.7813 28.4827 38.464 31.128 38.464 34.84V38.232C38.464 40.4507 38.5707 41.944 38.784 42.712C39.04 43.48 39.552 43.864 40.32 43.864C41.088 43.864 41.6853 43.5227 42.112 42.84C42.5813 42.1147 43.008 40.6213 43.392 38.36L44.48 38.488C44.0107 42.1147 43.1787 44.5467 41.984 45.784C40.832 47.0213 38.5067 47.64 35.008 47.64C31.5093 47.64 29.0133 46.8293 27.52 45.208C26.0693 43.544 25.344 40.4507 25.344 35.928V31.256C25.344 28.8667 25.024 27.1173 24.384 26.008C23.7867 24.8987 22.656 24.344 20.992 24.344ZM17.6 3.416V23.128H19.648C22.08 23.128 23.872 22.3813 25.024 20.888C26.2187 19.3947 26.816 16.9627 26.816 13.592V11.736C26.816 8.36533 26.24 6.14667 25.088 5.08C23.9787 3.97067 22.1867 3.416 19.712 3.416H17.6Z" fill="#040404" fill-opacity="0.33"/>
<path d="M62.6595 47.64C57.1555 47.64 53.0168 46.232 50.2435 43.416C47.5128 40.5573 46.1475 36.6107 46.1475 31.576C46.1475 26.4987 47.6835 22.616 50.7555 19.928C53.8702 17.24 57.8168 15.896 62.5955 15.896C72.2808 15.896 76.9315 20.76 76.5475 30.488H58.4995V32.984C58.4995 37.1653 59.0328 40.3227 60.0995 42.456C61.1662 44.5893 63.0222 45.656 65.6675 45.656C70.6168 45.656 73.8595 43.0107 75.3955 37.72L76.5475 37.912C75.7368 40.984 74.2648 43.3733 72.1315 45.08C70.0408 46.7867 66.8835 47.64 62.6595 47.64ZM58.5635 29.208H65.1555V26.072C65.1555 22.616 64.9422 20.2693 64.5155 19.032C64.1315 17.752 63.3208 17.112 62.0835 17.112C60.8888 17.112 59.9928 17.7947 59.3955 19.16C58.8408 20.4827 58.5635 22.7867 58.5635 26.072V29.208Z" fill="#B5104C"/>
<path d="M62.6595 47.64C57.1555 47.64 53.0168 46.232 50.2435 43.416C47.5128 40.5573 46.1475 36.6107 46.1475 31.576C46.1475 26.4987 47.6835 22.616 50.7555 19.928C53.8702 17.24 57.8168 15.896 62.5955 15.896C72.2808 15.896 76.9315 20.76 76.5475 30.488H58.4995V32.984C58.4995 37.1653 59.0328 40.3227 60.0995 42.456C61.1662 44.5893 63.0222 45.656 65.6675 45.656C70.6168 45.656 73.8595 43.0107 75.3955 37.72L76.5475 37.912C75.7368 40.984 74.2648 43.3733 72.1315 45.08C70.0408 46.7867 66.8835 47.64 62.6595 47.64ZM58.5635 29.208H65.1555V26.072C65.1555 22.616 64.9422 20.2693 64.5155 19.032C64.1315 17.752 63.3208 17.112 62.0835 17.112C60.8888 17.112 59.9928 17.7947 59.3955 19.16C58.8408 20.4827 58.5635 22.7867 58.5635 26.072V29.208Z" fill="#88133D"/>
<path d="M62.6595 47.64C57.1555 47.64 53.0168 46.232 50.2435 43.416C47.5128 40.5573 46.1475 36.6107 46.1475 31.576C46.1475 26.4987 47.6835 22.616 50.7555 19.928C53.8702 17.24 57.8168 15.896 62.5955 15.896C72.2808 15.896 76.9315 20.76 76.5475 30.488H58.4995V32.984C58.4995 37.1653 59.0328 40.3227 60.0995 42.456C61.1662 44.5893 63.0222 45.656 65.6675 45.656C70.6168 45.656 73.8595 43.0107 75.3955 37.72L76.5475 37.912C75.7368 40.984 74.2648 43.3733 72.1315 45.08C70.0408 46.7867 66.8835 47.64 62.6595 47.64ZM58.5635 29.208H65.1555V26.072C65.1555 22.616 64.9422 20.2693 64.5155 19.032C64.1315 17.752 63.3208 17.112 62.0835 17.112C60.8888 17.112 59.9928 17.7947 59.3955 19.16C58.8408 20.4827 58.5635 22.7867 58.5635 26.072V29.208Z" fill="#262626"/>
<path d="M62.6595 47.64C57.1555 47.64 53.0168 46.232 50.2435 43.416C47.5128 40.5573 46.1475 36.6107 46.1475 31.576C46.1475 26.4987 47.6835 22.616 50.7555 19.928C53.8702 17.24 57.8168 15.896 62.5955 15.896C72.2808 15.896 76.9315 20.76 76.5475 30.488H58.4995V32.984C58.4995 37.1653 59.0328 40.3227 60.0995 42.456C61.1662 44.5893 63.0222 45.656 65.6675 45.656C70.6168 45.656 73.8595 43.0107 75.3955 37.72L76.5475 37.912C75.7368 40.984 74.2648 43.3733 72.1315 45.08C70.0408 46.7867 66.8835 47.64 62.6595 47.64ZM58.5635 29.208H65.1555V26.072C65.1555 22.616 64.9422 20.2693 64.5155 19.032C64.1315 17.752 63.3208 17.112 62.0835 17.112C60.8888 17.112 59.9928 17.7947 59.3955 19.16C58.8408 20.4827 58.5635 22.7867 58.5635 26.072V29.208Z" fill="black" fill-opacity="0.2"/>
<path d="M62.6595 47.64C57.1555 47.64 53.0168 46.232 50.2435 43.416C47.5128 40.5573 46.1475 36.6107 46.1475 31.576C46.1475 26.4987 47.6835 22.616 50.7555 19.928C53.8702 17.24 57.8168 15.896 62.5955 15.896C72.2808 15.896 76.9315 20.76 76.5475 30.488H58.4995V32.984C58.4995 37.1653 59.0328 40.3227 60.0995 42.456C61.1662 44.5893 63.0222 45.656 65.6675 45.656C70.6168 45.656 73.8595 43.0107 75.3955 37.72L76.5475 37.912C75.7368 40.984 74.2648 43.3733 72.1315 45.08C70.0408 46.7867 66.8835 47.64 62.6595 47.64ZM58.5635 29.208H65.1555V26.072C65.1555 22.616 64.9422 20.2693 64.5155 19.032C64.1315 17.752 63.3208 17.112 62.0835 17.112C60.8888 17.112 59.9928 17.7947 59.3955 19.16C58.8408 20.4827 58.5635 22.7867 58.5635 26.072V29.208Z" fill="#040404" fill-opacity="0.33"/>
<path d="M104.492 13.208L106.284 12.12C106.54 10.7973 106.028 10.136 104.748 10.136C102.913 10.136 101.996 11.544 101.996 14.36C101.996 15.4693 102.145 16.7493 102.444 18.2C105.686 20.376 107.308 23.1707 107.308 26.584C107.308 29.9547 106.134 32.5787 103.788 34.456C101.441 36.3333 98.2622 37.272 94.2515 37.272C92.5875 37.272 90.8595 37.1013 89.0675 36.76C87.1902 37.9547 86.2515 38.8507 86.2515 39.448C86.2515 40.0453 87.6168 40.344 90.3475 40.344H96.8755C106.561 40.344 111.404 43.8213 111.404 50.776C111.404 54.5307 109.932 57.496 106.988 59.672C104.086 61.8907 99.5422 63 93.3555 63C82.8168 63 77.5475 60.7173 77.5475 56.152C77.5475 53.6773 79.1902 51.9707 82.4755 51.032L86.3155 52.76C85.9742 53.9973 85.8035 55.1707 85.8035 56.28C85.8035 59.9493 88.5342 61.784 93.9955 61.784C97.3235 61.784 99.8835 61.1653 101.676 59.928C103.468 58.6907 104.364 57.1547 104.364 55.32C104.364 53.4853 103.809 52.248 102.7 51.608C101.633 51.0107 99.4782 50.712 96.2355 50.712H90.0275C86.5715 50.712 84.0968 50.136 82.6035 48.984C81.1102 47.832 80.3635 46.424 80.3635 44.76C80.3635 43.0533 80.8968 41.6453 81.9635 40.536C83.0302 39.384 84.9288 37.976 87.6595 36.312C82.7102 34.904 80.2355 31.6613 80.2355 26.584C80.2355 23.384 81.3875 20.8027 83.6915 18.84C85.9955 16.8773 89.4515 15.896 94.0595 15.896C96.8328 15.896 99.2008 16.4293 101.164 17.496C100.908 16.344 100.78 15.2987 100.78 14.36C100.78 11.9707 101.42 10.2427 102.7 9.176C103.98 8.10933 105.409 7.576 106.988 7.576C108.566 7.576 109.825 8.00267 110.764 8.856C111.745 9.66667 112.236 10.7973 112.236 12.248C112.236 13.6987 111.852 14.7867 111.084 15.512C110.316 16.1947 109.377 16.536 108.268 16.536C107.201 16.536 106.305 16.2587 105.58 15.704C104.897 15.1067 104.534 14.2747 104.492 13.208ZM90.9235 25.176V28.632C90.9235 31.4907 91.1582 33.432 91.6275 34.456C92.1395 35.48 92.8862 35.992 93.8675 35.992C94.8915 35.992 95.6168 35.5013 96.0435 34.52C96.5128 33.496 96.7475 31.4267 96.7475 28.312V25.176C96.7475 21.848 96.5342 19.672 96.1075 18.648C95.6808 17.5813 94.9555 17.048 93.9315 17.048C92.9502 17.048 92.2035 17.6027 91.6915 18.712C91.1795 19.7787 90.9235 21.9333 90.9235 25.176Z" fill="#B5104C"/>
<path d="M104.492 13.208L106.284 12.12C106.54 10.7973 106.028 10.136 104.748 10.136C102.913 10.136 101.996 11.544 101.996 14.36C101.996 15.4693 102.145 16.7493 102.444 18.2C105.686 20.376 107.308 23.1707 107.308 26.584C107.308 29.9547 106.134 32.5787 103.788 34.456C101.441 36.3333 98.2622 37.272 94.2515 37.272C92.5875 37.272 90.8595 37.1013 89.0675 36.76C87.1902 37.9547 86.2515 38.8507 86.2515 39.448C86.2515 40.0453 87.6168 40.344 90.3475 40.344H96.8755C106.561 40.344 111.404 43.8213 111.404 50.776C111.404 54.5307 109.932 57.496 106.988 59.672C104.086 61.8907 99.5422 63 93.3555 63C82.8168 63 77.5475 60.7173 77.5475 56.152C77.5475 53.6773 79.1902 51.9707 82.4755 51.032L86.3155 52.76C85.9742 53.9973 85.8035 55.1707 85.8035 56.28C85.8035 59.9493 88.5342 61.784 93.9955 61.784C97.3235 61.784 99.8835 61.1653 101.676 59.928C103.468 58.6907 104.364 57.1547 104.364 55.32C104.364 53.4853 103.809 52.248 102.7 51.608C101.633 51.0107 99.4782 50.712 96.2355 50.712H90.0275C86.5715 50.712 84.0968 50.136 82.6035 48.984C81.1102 47.832 80.3635 46.424 80.3635 44.76C80.3635 43.0533 80.8968 41.6453 81.9635 40.536C83.0302 39.384 84.9288 37.976 87.6595 36.312C82.7102 34.904 80.2355 31.6613 80.2355 26.584C80.2355 23.384 81.3875 20.8027 83.6915 18.84C85.9955 16.8773 89.4515 15.896 94.0595 15.896C96.8328 15.896 99.2008 16.4293 101.164 17.496C100.908 16.344 100.78 15.2987 100.78 14.36C100.78 11.9707 101.42 10.2427 102.7 9.176C103.98 8.10933 105.409 7.576 106.988 7.576C108.566 7.576 109.825 8.00267 110.764 8.856C111.745 9.66667 112.236 10.7973 112.236 12.248C112.236 13.6987 111.852 14.7867 111.084 15.512C110.316 16.1947 109.377 16.536 108.268 16.536C107.201 16.536 106.305 16.2587 105.58 15.704C104.897 15.1067 104.534 14.2747 104.492 13.208ZM90.9235 25.176V28.632C90.9235 31.4907 91.1582 33.432 91.6275 34.456C92.1395 35.48 92.8862 35.992 93.8675 35.992C94.8915 35.992 95.6168 35.5013 96.0435 34.52C96.5128 33.496 96.7475 31.4267 96.7475 28.312V25.176C96.7475 21.848 96.5342 19.672 96.1075 18.648C95.6808 17.5813 94.9555 17.048 93.9315 17.048C92.9502 17.048 92.2035 17.6027 91.6915 18.712C91.1795 19.7787 90.9235 21.9333 90.9235 25.176Z" fill="#88133D"/>
<path d="M104.492 13.208L106.284 12.12C106.54 10.7973 106.028 10.136 104.748 10.136C102.913 10.136 101.996 11.544 101.996 14.36C101.996 15.4693 102.145 16.7493 102.444 18.2C105.686 20.376 107.308 23.1707 107.308 26.584C107.308 29.9547 106.134 32.5787 103.788 34.456C101.441 36.3333 98.2622 37.272 94.2515 37.272C92.5875 37.272 90.8595 37.1013 89.0675 36.76C87.1902 37.9547 86.2515 38.8507 86.2515 39.448C86.2515 40.0453 87.6168 40.344 90.3475 40.344H96.8755C106.561 40.344 111.404 43.8213 111.404 50.776C111.404 54.5307 109.932 57.496 106.988 59.672C104.086 61.8907 99.5422 63 93.3555 63C82.8168 63 77.5475 60.7173 77.5475 56.152C77.5475 53.6773 79.1902 51.9707 82.4755 51.032L86.3155 52.76C85.9742 53.9973 85.8035 55.1707 85.8035 56.28C85.8035 59.9493 88.5342 61.784 93.9955 61.784C97.3235 61.784 99.8835 61.1653 101.676 59.928C103.468 58.6907 104.364 57.1547 104.364 55.32C104.364 53.4853 103.809 52.248 102.7 51.608C101.633 51.0107 99.4782 50.712 96.2355 50.712H90.0275C86.5715 50.712 84.0968 50.136 82.6035 48.984C81.1102 47.832 80.3635 46.424 80.3635 44.76C80.3635 43.0533 80.8968 41.6453 81.9635 40.536C83.0302 39.384 84.9288 37.976 87.6595 36.312C82.7102 34.904 80.2355 31.6613 80.2355 26.584C80.2355 23.384 81.3875 20.8027 83.6915 18.84C85.9955 16.8773 89.4515 15.896 94.0595 15.896C96.8328 15.896 99.2008 16.4293 101.164 17.496C100.908 16.344 100.78 15.2987 100.78 14.36C100.78 11.9707 101.42 10.2427 102.7 9.176C103.98 8.10933 105.409 7.576 106.988 7.576C108.566 7.576 109.825 8.00267 110.764 8.856C111.745 9.66667 112.236 10.7973 112.236 12.248C112.236 13.6987 111.852 14.7867 111.084 15.512C110.316 16.1947 109.377 16.536 108.268 16.536C107.201 16.536 106.305 16.2587 105.58 15.704C104.897 15.1067 104.534 14.2747 104.492 13.208ZM90.9235 25.176V28.632C90.9235 31.4907 91.1582 33.432 91.6275 34.456C92.1395 35.48 92.8862 35.992 93.8675 35.992C94.8915 35.992 95.6168 35.5013 96.0435 34.52C96.5128 33.496 96.7475 31.4267 96.7475 28.312V25.176C96.7475 21.848 96.5342 19.672 96.1075 18.648C95.6808 17.5813 94.9555 17.048 93.9315 17.048C92.9502 17.048 92.2035 17.6027 91.6915 18.712C91.1795 19.7787 90.9235 21.9333 90.9235 25.176Z" fill="#262626"/>
<path d="M104.492 13.208L106.284 12.12C106.54 10.7973 106.028 10.136 104.748 10.136C102.913 10.136 101.996 11.544 101.996 14.36C101.996 15.4693 102.145 16.7493 102.444 18.2C105.686 20.376 107.308 23.1707 107.308 26.584C107.308 29.9547 106.134 32.5787 103.788 34.456C101.441 36.3333 98.2622 37.272 94.2515 37.272C92.5875 37.272 90.8595 37.1013 89.0675 36.76C87.1902 37.9547 86.2515 38.8507 86.2515 39.448C86.2515 40.0453 87.6168 40.344 90.3475 40.344H96.8755C106.561 40.344 111.404 43.8213 111.404 50.776C111.404 54.5307 109.932 57.496 106.988 59.672C104.086 61.8907 99.5422 63 93.3555 63C82.8168 63 77.5475 60.7173 77.5475 56.152C77.5475 53.6773 79.1902 51.9707 82.4755 51.032L86.3155 52.76C85.9742 53.9973 85.8035 55.1707 85.8035 56.28C85.8035 59.9493 88.5342 61.784 93.9955 61.784C97.3235 61.784 99.8835 61.1653 101.676 59.928C103.468 58.6907 104.364 57.1547 104.364 55.32C104.364 53.4853 103.809 52.248 102.7 51.608C101.633 51.0107 99.4782 50.712 96.2355 50.712H90.0275C86.5715 50.712 84.0968 50.136 82.6035 48.984C81.1102 47.832 80.3635 46.424 80.3635 44.76C80.3635 43.0533 80.8968 41.6453 81.9635 40.536C83.0302 39.384 84.9288 37.976 87.6595 36.312C82.7102 34.904 80.2355 31.6613 80.2355 26.584C80.2355 23.384 81.3875 20.8027 83.6915 18.84C85.9955 16.8773 89.4515 15.896 94.0595 15.896C96.8328 15.896 99.2008 16.4293 101.164 17.496C100.908 16.344 100.78 15.2987 100.78 14.36C100.78 11.9707 101.42 10.2427 102.7 9.176C103.98 8.10933 105.409 7.576 106.988 7.576C108.566 7.576 109.825 8.00267 110.764 8.856C111.745 9.66667 112.236 10.7973 112.236 12.248C112.236 13.6987 111.852 14.7867 111.084 15.512C110.316 16.1947 109.377 16.536 108.268 16.536C107.201 16.536 106.305 16.2587 105.58 15.704C104.897 15.1067 104.534 14.2747 104.492 13.208ZM90.9235 25.176V28.632C90.9235 31.4907 91.1582 33.432 91.6275 34.456C92.1395 35.48 92.8862 35.992 93.8675 35.992C94.8915 35.992 95.6168 35.5013 96.0435 34.52C96.5128 33.496 96.7475 31.4267 96.7475 28.312V25.176C96.7475 21.848 96.5342 19.672 96.1075 18.648C95.6808 17.5813 94.9555 17.048 93.9315 17.048C92.9502 17.048 92.2035 17.6027 91.6915 18.712C91.1795 19.7787 90.9235 21.9333 90.9235 25.176Z" fill="black" fill-opacity="0.2"/>
<path d="M104.492 13.208L106.284 12.12C106.54 10.7973 106.028 10.136 104.748 10.136C102.913 10.136 101.996 11.544 101.996 14.36C101.996 15.4693 102.145 16.7493 102.444 18.2C105.686 20.376 107.308 23.1707 107.308 26.584C107.308 29.9547 106.134 32.5787 103.788 34.456C101.441 36.3333 98.2622 37.272 94.2515 37.272C92.5875 37.272 90.8595 37.1013 89.0675 36.76C87.1902 37.9547 86.2515 38.8507 86.2515 39.448C86.2515 40.0453 87.6168 40.344 90.3475 40.344H96.8755C106.561 40.344 111.404 43.8213 111.404 50.776C111.404 54.5307 109.932 57.496 106.988 59.672C104.086 61.8907 99.5422 63 93.3555 63C82.8168 63 77.5475 60.7173 77.5475 56.152C77.5475 53.6773 79.1902 51.9707 82.4755 51.032L86.3155 52.76C85.9742 53.9973 85.8035 55.1707 85.8035 56.28C85.8035 59.9493 88.5342 61.784 93.9955 61.784C97.3235 61.784 99.8835 61.1653 101.676 59.928C103.468 58.6907 104.364 57.1547 104.364 55.32C104.364 53.4853 103.809 52.248 102.7 51.608C101.633 51.0107 99.4782 50.712 96.2355 50.712H90.0275C86.5715 50.712 84.0968 50.136 82.6035 48.984C81.1102 47.832 80.3635 46.424 80.3635 44.76C80.3635 43.0533 80.8968 41.6453 81.9635 40.536C83.0302 39.384 84.9288 37.976 87.6595 36.312C82.7102 34.904 80.2355 31.6613 80.2355 26.584C80.2355 23.384 81.3875 20.8027 83.6915 18.84C85.9955 16.8773 89.4515 15.896 94.0595 15.896C96.8328 15.896 99.2008 16.4293 101.164 17.496C100.908 16.344 100.78 15.2987 100.78 14.36C100.78 11.9707 101.42 10.2427 102.7 9.176C103.98 8.10933 105.409 7.576 106.988 7.576C108.566 7.576 109.825 8.00267 110.764 8.856C111.745 9.66667 112.236 10.7973 112.236 12.248C112.236 13.6987 111.852 14.7867 111.084 15.512C110.316 16.1947 109.377 16.536 108.268 16.536C107.201 16.536 106.305 16.2587 105.58 15.704C104.897 15.1067 104.534 14.2747 104.492 13.208ZM90.9235 25.176V28.632C90.9235 31.4907 91.1582 33.432 91.6275 34.456C92.1395 35.48 92.8862 35.992 93.8675 35.992C94.8915 35.992 95.6168 35.5013 96.0435 34.52C96.5128 33.496 96.7475 31.4267 96.7475 28.312V25.176C96.7475 21.848 96.5342 19.672 96.1075 18.648C95.6808 17.5813 94.9555 17.048 93.9315 17.048C92.9502 17.048 92.2035 17.6027 91.6915 18.712C91.1795 19.7787 90.9235 21.9333 90.9235 25.176Z" fill="#040404" fill-opacity="0.33"/>
<path d="M121.673 12.12C119.412 12.12 117.79 11.544 116.809 10.392C115.87 9.24 115.401 7.81067 115.401 6.104C115.401 4.39734 115.913 2.98934 116.937 1.88C118.004 0.770669 119.604 0.216003 121.737 0.216003C123.87 0.216003 125.492 0.728003 126.601 1.752C127.71 2.73334 128.265 4.16267 128.265 6.04C128.265 7.87467 127.732 9.34667 126.665 10.456C125.598 11.5653 123.934 12.12 121.673 12.12ZM112.009 16.536H127.689V45.848H131.273V47H112.265V45.848H115.785V17.688H112.009V16.536Z" fill="#B5104C"/>
<path d="M121.673 12.12C119.412 12.12 117.79 11.544 116.809 10.392C115.87 9.24 115.401 7.81067 115.401 6.104C115.401 4.39734 115.913 2.98934 116.937 1.88C118.004 0.770669 119.604 0.216003 121.737 0.216003C123.87 0.216003 125.492 0.728003 126.601 1.752C127.71 2.73334 128.265 4.16267 128.265 6.04C128.265 7.87467 127.732 9.34667 126.665 10.456C125.598 11.5653 123.934 12.12 121.673 12.12ZM112.009 16.536H127.689V45.848H131.273V47H112.265V45.848H115.785V17.688H112.009V16.536Z" fill="#88133D"/>
<path d="M121.673 12.12C119.412 12.12 117.79 11.544 116.809 10.392C115.87 9.24 115.401 7.81067 115.401 6.104C115.401 4.39734 115.913 2.98934 116.937 1.88C118.004 0.770669 119.604 0.216003 121.737 0.216003C123.87 0.216003 125.492 0.728003 126.601 1.752C127.71 2.73334 128.265 4.16267 128.265 6.04C128.265 7.87467 127.732 9.34667 126.665 10.456C125.598 11.5653 123.934 12.12 121.673 12.12ZM112.009 16.536H127.689V45.848H131.273V47H112.265V45.848H115.785V17.688H112.009V16.536Z" fill="#262626"/>
<path d="M121.673 12.12C119.412 12.12 117.79 11.544 116.809 10.392C115.87 9.24 115.401 7.81067 115.401 6.104C115.401 4.39734 115.913 2.98934 116.937 1.88C118.004 0.770669 119.604 0.216003 121.737 0.216003C123.87 0.216003 125.492 0.728003 126.601 1.752C127.71 2.73334 128.265 4.16267 128.265 6.04C128.265 7.87467 127.732 9.34667 126.665 10.456C125.598 11.5653 123.934 12.12 121.673 12.12ZM112.009 16.536H127.689V45.848H131.273V47H112.265V45.848H115.785V17.688H112.009V16.536Z" fill="black" fill-opacity="0.2"/>
<path d="M121.673 12.12C119.412 12.12 117.79 11.544 116.809 10.392C115.87 9.24 115.401 7.81067 115.401 6.104C115.401 4.39734 115.913 2.98934 116.937 1.88C118.004 0.770669 119.604 0.216003 121.737 0.216003C123.87 0.216003 125.492 0.728003 126.601 1.752C127.71 2.73334 128.265 4.16267 128.265 6.04C128.265 7.87467 127.732 9.34667 126.665 10.456C125.598 11.5653 123.934 12.12 121.673 12.12ZM112.009 16.536H127.689V45.848H131.273V47H112.265V45.848H115.785V17.688H112.009V16.536Z" fill="#040404" fill-opacity="0.33"/>
<path d="M132.706 16.536H148.13V22.424C148.812 20.4613 149.858 18.8827 151.266 17.688C152.674 16.4933 154.807 15.896 157.666 15.896C164.279 15.896 167.586 19.4587 167.586 26.584V45.848H171.17V47H153.058V45.848H155.682V25.048C155.682 22.488 155.511 20.8453 155.17 20.12C154.828 19.352 154.21 18.968 153.314 18.968C151.948 18.968 150.732 19.864 149.666 21.656C148.642 23.448 148.13 25.624 148.13 28.184V45.848H150.882V47H132.706V45.848H136.226V17.688H132.706V16.536Z" fill="#B5104C"/>
<path d="M132.706 16.536H148.13V22.424C148.812 20.4613 149.858 18.8827 151.266 17.688C152.674 16.4933 154.807 15.896 157.666 15.896C164.279 15.896 167.586 19.4587 167.586 26.584V45.848H171.17V47H153.058V45.848H155.682V25.048C155.682 22.488 155.511 20.8453 155.17 20.12C154.828 19.352 154.21 18.968 153.314 18.968C151.948 18.968 150.732 19.864 149.666 21.656C148.642 23.448 148.13 25.624 148.13 28.184V45.848H150.882V47H132.706V45.848H136.226V17.688H132.706V16.536Z" fill="#88133D"/>
<path d="M132.706 16.536H148.13V22.424C148.812 20.4613 149.858 18.8827 151.266 17.688C152.674 16.4933 154.807 15.896 157.666 15.896C164.279 15.896 167.586 19.4587 167.586 26.584V45.848H171.17V47H153.058V45.848H155.682V25.048C155.682 22.488 155.511 20.8453 155.17 20.12C154.828 19.352 154.21 18.968 153.314 18.968C151.948 18.968 150.732 19.864 149.666 21.656C148.642 23.448 148.13 25.624 148.13 28.184V45.848H150.882V47H132.706V45.848H136.226V17.688H132.706V16.536Z" fill="#262626"/>
<path d="M132.706 16.536H148.13V22.424C148.812 20.4613 149.858 18.8827 151.266 17.688C152.674 16.4933 154.807 15.896 157.666 15.896C164.279 15.896 167.586 19.4587 167.586 26.584V45.848H171.17V47H153.058V45.848H155.682V25.048C155.682 22.488 155.511 20.8453 155.17 20.12C154.828 19.352 154.21 18.968 153.314 18.968C151.948 18.968 150.732 19.864 149.666 21.656C148.642 23.448 148.13 25.624 148.13 28.184V45.848H150.882V47H132.706V45.848H136.226V17.688H132.706V16.536Z" fill="black" fill-opacity="0.2"/>
<path d="M132.706 16.536H148.13V22.424C148.812 20.4613 149.858 18.8827 151.266 17.688C152.674 16.4933 154.807 15.896 157.666 15.896C164.279 15.896 167.586 19.4587 167.586 26.584V45.848H171.17V47H153.058V45.848H155.682V25.048C155.682 22.488 155.511 20.8453 155.17 20.12C154.828 19.352 154.21 18.968 153.314 18.968C151.948 18.968 150.732 19.864 149.666 21.656C148.642 23.448 148.13 25.624 148.13 28.184V45.848H150.882V47H132.706V45.848H136.226V17.688H132.706V16.536Z" fill="#040404" fill-opacity="0.33"/>
<path d="M187.375 31.96H189.231V27.032C189.231 22.9787 188.996 20.2693 188.527 18.904C188.1 17.496 187.247 16.792 185.967 16.792C185.199 16.792 184.495 17.0053 183.855 17.432C183.258 17.816 182.959 18.3707 182.959 19.096C182.959 19.7787 183.087 20.4827 183.343 21.208H184.943C185.284 22.104 185.455 23.192 185.455 24.472C185.455 25.7093 184.922 26.7973 183.855 27.736C182.788 28.632 181.444 29.08 179.823 29.08C176.154 29.08 174.319 27.3093 174.319 23.768C174.319 18.52 178.778 15.896 187.695 15.896C192.772 15.896 196.271 16.7707 198.191 18.52C200.154 20.2267 201.135 23.384 201.135 27.992V40.984C201.135 43.2027 201.754 44.312 202.991 44.312C204.442 44.312 205.295 42.1147 205.551 37.72L206.511 37.784C206.34 41.5387 205.636 44.12 204.399 45.528C203.162 46.936 201.135 47.64 198.319 47.64C193.199 47.64 190.255 46.0613 189.487 42.904C188.932 44.5253 188.1 45.72 186.991 46.488C185.882 47.256 184.26 47.64 182.127 47.64C175.812 47.64 172.655 45.0587 172.655 39.896C172.655 36.8667 173.85 34.7973 176.239 33.688C178.671 32.536 182.383 31.96 187.375 31.96ZM184.815 39.832C184.815 42.0507 184.922 43.48 185.135 44.12C185.391 44.76 185.839 45.08 186.479 45.08C187.162 45.08 187.78 44.5467 188.335 43.48C188.932 42.3707 189.231 40.856 189.231 38.936V32.984H188.783C186.138 32.984 184.815 34.9253 184.815 38.808V39.832Z" fill="#B5104C"/>
<path d="M187.375 31.96H189.231V27.032C189.231 22.9787 188.996 20.2693 188.527 18.904C188.1 17.496 187.247 16.792 185.967 16.792C185.199 16.792 184.495 17.0053 183.855 17.432C183.258 17.816 182.959 18.3707 182.959 19.096C182.959 19.7787 183.087 20.4827 183.343 21.208H184.943C185.284 22.104 185.455 23.192 185.455 24.472C185.455 25.7093 184.922 26.7973 183.855 27.736C182.788 28.632 181.444 29.08 179.823 29.08C176.154 29.08 174.319 27.3093 174.319 23.768C174.319 18.52 178.778 15.896 187.695 15.896C192.772 15.896 196.271 16.7707 198.191 18.52C200.154 20.2267 201.135 23.384 201.135 27.992V40.984C201.135 43.2027 201.754 44.312 202.991 44.312C204.442 44.312 205.295 42.1147 205.551 37.72L206.511 37.784C206.34 41.5387 205.636 44.12 204.399 45.528C203.162 46.936 201.135 47.64 198.319 47.64C193.199 47.64 190.255 46.0613 189.487 42.904C188.932 44.5253 188.1 45.72 186.991 46.488C185.882 47.256 184.26 47.64 182.127 47.64C175.812 47.64 172.655 45.0587 172.655 39.896C172.655 36.8667 173.85 34.7973 176.239 33.688C178.671 32.536 182.383 31.96 187.375 31.96ZM184.815 39.832C184.815 42.0507 184.922 43.48 185.135 44.12C185.391 44.76 185.839 45.08 186.479 45.08C187.162 45.08 187.78 44.5467 188.335 43.48C188.932 42.3707 189.231 40.856 189.231 38.936V32.984H188.783C186.138 32.984 184.815 34.9253 184.815 38.808V39.832Z" fill="#88133D"/>
<path d="M187.375 31.96H189.231V27.032C189.231 22.9787 188.996 20.2693 188.527 18.904C188.1 17.496 187.247 16.792 185.967 16.792C185.199 16.792 184.495 17.0053 183.855 17.432C183.258 17.816 182.959 18.3707 182.959 19.096C182.959 19.7787 183.087 20.4827 183.343 21.208H184.943C185.284 22.104 185.455 23.192 185.455 24.472C185.455 25.7093 184.922 26.7973 183.855 27.736C182.788 28.632 181.444 29.08 179.823 29.08C176.154 29.08 174.319 27.3093 174.319 23.768C174.319 18.52 178.778 15.896 187.695 15.896C192.772 15.896 196.271 16.7707 198.191 18.52C200.154 20.2267 201.135 23.384 201.135 27.992V40.984C201.135 43.2027 201.754 44.312 202.991 44.312C204.442 44.312 205.295 42.1147 205.551 37.72L206.511 37.784C206.34 41.5387 205.636 44.12 204.399 45.528C203.162 46.936 201.135 47.64 198.319 47.64C193.199 47.64 190.255 46.0613 189.487 42.904C188.932 44.5253 188.1 45.72 186.991 46.488C185.882 47.256 184.26 47.64 182.127 47.64C175.812 47.64 172.655 45.0587 172.655 39.896C172.655 36.8667 173.85 34.7973 176.239 33.688C178.671 32.536 182.383 31.96 187.375 31.96ZM184.815 39.832C184.815 42.0507 184.922 43.48 185.135 44.12C185.391 44.76 185.839 45.08 186.479 45.08C187.162 45.08 187.78 44.5467 188.335 43.48C188.932 42.3707 189.231 40.856 189.231 38.936V32.984H188.783C186.138 32.984 184.815 34.9253 184.815 38.808V39.832Z" fill="#262626"/>
<path d="M187.375 31.96H189.231V27.032C189.231 22.9787 188.996 20.2693 188.527 18.904C188.1 17.496 187.247 16.792 185.967 16.792C185.199 16.792 184.495 17.0053 183.855 17.432C183.258 17.816 182.959 18.3707 182.959 19.096C182.959 19.7787 183.087 20.4827 183.343 21.208H184.943C185.284 22.104 185.455 23.192 185.455 24.472C185.455 25.7093 184.922 26.7973 183.855 27.736C182.788 28.632 181.444 29.08 179.823 29.08C176.154 29.08 174.319 27.3093 174.319 23.768C174.319 18.52 178.778 15.896 187.695 15.896C192.772 15.896 196.271 16.7707 198.191 18.52C200.154 20.2267 201.135 23.384 201.135 27.992V40.984C201.135 43.2027 201.754 44.312 202.991 44.312C204.442 44.312 205.295 42.1147 205.551 37.72L206.511 37.784C206.34 41.5387 205.636 44.12 204.399 45.528C203.162 46.936 201.135 47.64 198.319 47.64C193.199 47.64 190.255 46.0613 189.487 42.904C188.932 44.5253 188.1 45.72 186.991 46.488C185.882 47.256 184.26 47.64 182.127 47.64C175.812 47.64 172.655 45.0587 172.655 39.896C172.655 36.8667 173.85 34.7973 176.239 33.688C178.671 32.536 182.383 31.96 187.375 31.96ZM184.815 39.832C184.815 42.0507 184.922 43.48 185.135 44.12C185.391 44.76 185.839 45.08 186.479 45.08C187.162 45.08 187.78 44.5467 188.335 43.48C188.932 42.3707 189.231 40.856 189.231 38.936V32.984H188.783C186.138 32.984 184.815 34.9253 184.815 38.808V39.832Z" fill="black" fill-opacity="0.2"/>
<path d="M187.375 31.96H189.231V27.032C189.231 22.9787 188.996 20.2693 188.527 18.904C188.1 17.496 187.247 16.792 185.967 16.792C185.199 16.792 184.495 17.0053 183.855 17.432C183.258 17.816 182.959 18.3707 182.959 19.096C182.959 19.7787 183.087 20.4827 183.343 21.208H184.943C185.284 22.104 185.455 23.192 185.455 24.472C185.455 25.7093 184.922 26.7973 183.855 27.736C182.788 28.632 181.444 29.08 179.823 29.08C176.154 29.08 174.319 27.3093 174.319 23.768C174.319 18.52 178.778 15.896 187.695 15.896C192.772 15.896 196.271 16.7707 198.191 18.52C200.154 20.2267 201.135 23.384 201.135 27.992V40.984C201.135 43.2027 201.754 44.312 202.991 44.312C204.442 44.312 205.295 42.1147 205.551 37.72L206.511 37.784C206.34 41.5387 205.636 44.12 204.399 45.528C203.162 46.936 201.135 47.64 198.319 47.64C193.199 47.64 190.255 46.0613 189.487 42.904C188.932 44.5253 188.1 45.72 186.991 46.488C185.882 47.256 184.26 47.64 182.127 47.64C175.812 47.64 172.655 45.0587 172.655 39.896C172.655 36.8667 173.85 34.7973 176.239 33.688C178.671 32.536 182.383 31.96 187.375 31.96ZM184.815 39.832C184.815 42.0507 184.922 43.48 185.135 44.12C185.391 44.76 185.839 45.08 186.479 45.08C187.162 45.08 187.78 44.5467 188.335 43.48C188.932 42.3707 189.231 40.856 189.231 38.936V32.984H188.783C186.138 32.984 184.815 34.9253 184.815 38.808V39.832Z" fill="#040404" fill-opacity="0.33"/>
<path d="M243.6 2.776C236.987 2.776 233.68 9.15467 233.68 21.912V26.968C233.68 33.0267 234.555 37.784 236.304 41.24C238.053 44.6533 240.635 46.36 244.048 46.36C248.741 46.36 253.051 41.7947 256.976 32.664H258.128L257.68 46.936H256.976C256.72 46.4667 256.485 46.1467 256.272 45.976C256.059 45.7627 255.739 45.656 255.312 45.656C254.928 45.656 253.392 45.9973 250.704 46.68C248.016 47.32 245.285 47.64 242.512 47.64C235.557 47.64 230.16 45.7627 226.32 42.008C222.523 38.2533 220.624 32.6213 220.624 25.112C220.624 17.56 222.608 11.736 226.576 7.64C230.587 3.544 235.963 1.496 242.704 1.496C245.307 1.496 247.845 1.83733 250.32 2.52C252.837 3.16 254.309 3.48 254.736 3.48C255.163 3.48 255.483 3.39467 255.696 3.224C255.909 3.01067 256.144 2.66934 256.4 2.2H257.104L257.616 16.088H256.464C254.544 11.7787 252.56 8.49333 250.512 6.232C248.507 3.928 246.203 2.776 243.6 2.776Z" fill="#B5104C"/>
<path d="M243.6 2.776C236.987 2.776 233.68 9.15467 233.68 21.912V26.968C233.68 33.0267 234.555 37.784 236.304 41.24C238.053 44.6533 240.635 46.36 244.048 46.36C248.741 46.36 253.051 41.7947 256.976 32.664H258.128L257.68 46.936H256.976C256.72 46.4667 256.485 46.1467 256.272 45.976C256.059 45.7627 255.739 45.656 255.312 45.656C254.928 45.656 253.392 45.9973 250.704 46.68C248.016 47.32 245.285 47.64 242.512 47.64C235.557 47.64 230.16 45.7627 226.32 42.008C222.523 38.2533 220.624 32.6213 220.624 25.112C220.624 17.56 222.608 11.736 226.576 7.64C230.587 3.544 235.963 1.496 242.704 1.496C245.307 1.496 247.845 1.83733 250.32 2.52C252.837 3.16 254.309 3.48 254.736 3.48C255.163 3.48 255.483 3.39467 255.696 3.224C255.909 3.01067 256.144 2.66934 256.4 2.2H257.104L257.616 16.088H256.464C254.544 11.7787 252.56 8.49333 250.512 6.232C248.507 3.928 246.203 2.776 243.6 2.776Z" fill="#88133D"/>
<path d="M243.6 2.776C236.987 2.776 233.68 9.15467 233.68 21.912V26.968C233.68 33.0267 234.555 37.784 236.304 41.24C238.053 44.6533 240.635 46.36 244.048 46.36C248.741 46.36 253.051 41.7947 256.976 32.664H258.128L257.68 46.936H256.976C256.72 46.4667 256.485 46.1467 256.272 45.976C256.059 45.7627 255.739 45.656 255.312 45.656C254.928 45.656 253.392 45.9973 250.704 46.68C248.016 47.32 245.285 47.64 242.512 47.64C235.557 47.64 230.16 45.7627 226.32 42.008C222.523 38.2533 220.624 32.6213 220.624 25.112C220.624 17.56 222.608 11.736 226.576 7.64C230.587 3.544 235.963 1.496 242.704 1.496C245.307 1.496 247.845 1.83733 250.32 2.52C252.837 3.16 254.309 3.48 254.736 3.48C255.163 3.48 255.483 3.39467 255.696 3.224C255.909 3.01067 256.144 2.66934 256.4 2.2H257.104L257.616 16.088H256.464C254.544 11.7787 252.56 8.49333 250.512 6.232C248.507 3.928 246.203 2.776 243.6 2.776Z" fill="#262626"/>
<path d="M243.6 2.776C236.987 2.776 233.68 9.15467 233.68 21.912V26.968C233.68 33.0267 234.555 37.784 236.304 41.24C238.053 44.6533 240.635 46.36 244.048 46.36C248.741 46.36 253.051 41.7947 256.976 32.664H258.128L257.68 46.936H256.976C256.72 46.4667 256.485 46.1467 256.272 45.976C256.059 45.7627 255.739 45.656 255.312 45.656C254.928 45.656 253.392 45.9973 250.704 46.68C248.016 47.32 245.285 47.64 242.512 47.64C235.557 47.64 230.16 45.7627 226.32 42.008C222.523 38.2533 220.624 32.6213 220.624 25.112C220.624 17.56 222.608 11.736 226.576 7.64C230.587 3.544 235.963 1.496 242.704 1.496C245.307 1.496 247.845 1.83733 250.32 2.52C252.837 3.16 254.309 3.48 254.736 3.48C255.163 3.48 255.483 3.39467 255.696 3.224C255.909 3.01067 256.144 2.66934 256.4 2.2H257.104L257.616 16.088H256.464C254.544 11.7787 252.56 8.49333 250.512 6.232C248.507 3.928 246.203 2.776 243.6 2.776Z" fill="black" fill-opacity="0.2"/>
<path d="M243.6 2.776C236.987 2.776 233.68 9.15467 233.68 21.912V26.968C233.68 33.0267 234.555 37.784 236.304 41.24C238.053 44.6533 240.635 46.36 244.048 46.36C248.741 46.36 253.051 41.7947 256.976 32.664H258.128L257.68 46.936H256.976C256.72 46.4667 256.485 46.1467 256.272 45.976C256.059 45.7627 255.739 45.656 255.312 45.656C254.928 45.656 253.392 45.9973 250.704 46.68C248.016 47.32 245.285 47.64 242.512 47.64C235.557 47.64 230.16 45.7627 226.32 42.008C222.523 38.2533 220.624 32.6213 220.624 25.112C220.624 17.56 222.608 11.736 226.576 7.64C230.587 3.544 235.963 1.496 242.704 1.496C245.307 1.496 247.845 1.83733 250.32 2.52C252.837 3.16 254.309 3.48 254.736 3.48C255.163 3.48 255.483 3.39467 255.696 3.224C255.909 3.01067 256.144 2.66934 256.4 2.2H257.104L257.616 16.088H256.464C254.544 11.7787 252.56 8.49333 250.512 6.232C248.507 3.928 246.203 2.776 243.6 2.776Z" fill="#040404" fill-opacity="0.33"/>
<path d="M299.018 47H284.426L283.722 42.328C283.039 44.0347 282.015 45.3573 280.65 46.296C279.327 47.192 277.343 47.64 274.697 47.64C268.084 47.64 264.778 44.0773 264.778 36.952V17.688H261.193V16.536H276.682V38.488C276.682 41.048 276.852 42.7333 277.193 43.544C277.577 44.3547 278.303 44.76 279.37 44.76C280.479 44.76 281.46 44.0987 282.314 42.776C283.167 41.4533 283.594 39.6187 283.594 37.272V17.688H280.65V16.536H295.498V45.848H299.018V47Z" fill="#B5104C"/>
<path d="M299.018 47H284.426L283.722 42.328C283.039 44.0347 282.015 45.3573 280.65 46.296C279.327 47.192 277.343 47.64 274.697 47.64C268.084 47.64 264.778 44.0773 264.778 36.952V17.688H261.193V16.536H276.682V38.488C276.682 41.048 276.852 42.7333 277.193 43.544C277.577 44.3547 278.303 44.76 279.37 44.76C280.479 44.76 281.46 44.0987 282.314 42.776C283.167 41.4533 283.594 39.6187 283.594 37.272V17.688H280.65V16.536H295.498V45.848H299.018V47Z" fill="#88133D"/>
<path d="M299.018 47H284.426L283.722 42.328C283.039 44.0347 282.015 45.3573 280.65 46.296C279.327 47.192 277.343 47.64 274.697 47.64C268.084 47.64 264.778 44.0773 264.778 36.952V17.688H261.193V16.536H276.682V38.488C276.682 41.048 276.852 42.7333 277.193 43.544C277.577 44.3547 278.303 44.76 279.37 44.76C280.479 44.76 281.46 44.0987 282.314 42.776C283.167 41.4533 283.594 39.6187 283.594 37.272V17.688H280.65V16.536H295.498V45.848H299.018V47Z" fill="#262626"/>
<path d="M299.018 47H284.426L283.722 42.328C283.039 44.0347 282.015 45.3573 280.65 46.296C279.327 47.192 277.343 47.64 274.697 47.64C268.084 47.64 264.778 44.0773 264.778 36.952V17.688H261.193V16.536H276.682V38.488C276.682 41.048 276.852 42.7333 277.193 43.544C277.577 44.3547 278.303 44.76 279.37 44.76C280.479 44.76 281.46 44.0987 282.314 42.776C283.167 41.4533 283.594 39.6187 283.594 37.272V17.688H280.65V16.536H295.498V45.848H299.018V47Z" fill="black" fill-opacity="0.2"/>
<path d="M299.018 47H284.426L283.722 42.328C283.039 44.0347 282.015 45.3573 280.65 46.296C279.327 47.192 277.343 47.64 274.697 47.64C268.084 47.64 264.778 44.0773 264.778 36.952V17.688H261.193V16.536H276.682V38.488C276.682 41.048 276.852 42.7333 277.193 43.544C277.577 44.3547 278.303 44.76 279.37 44.76C280.479 44.76 281.46 44.0987 282.314 42.776C283.167 41.4533 283.594 39.6187 283.594 37.272V17.688H280.65V16.536H295.498V45.848H299.018V47Z" fill="#040404" fill-opacity="0.33"/>
<path d="M323.688 29.784C323.688 25.3893 323.474 22.4453 323.048 20.952C322.621 19.416 321.789 18.648 320.551 18.648C319.314 18.648 318.205 19.4587 317.223 21.08C316.242 22.6587 315.752 24.792 315.752 27.48V39.192C315.752 41.0267 316.114 42.584 316.839 43.864C317.565 45.144 318.632 45.784 320.04 45.784C321.448 45.784 322.408 44.8453 322.92 42.968C323.432 41.0907 323.688 37.8053 323.688 33.112V29.784ZM315.624 16.536V21.592C317.288 17.7947 320.232 15.896 324.456 15.896C328.125 15.896 330.962 17.2187 332.968 19.864C335.016 22.5093 336.04 26.52 336.04 31.896C336.04 37.272 334.93 41.24 332.712 43.8C330.536 46.36 327.25 47.64 322.856 47.64C320.808 47.64 319.272 47.384 318.248 46.872C317.224 46.36 316.392 45.5707 315.752 44.504V61.08H324.008V62.232H300.327V61.08H303.848V17.688H300.456V16.536H315.624Z" fill="#B5104C"/>
<path d="M323.688 29.784C323.688 25.3893 323.474 22.4453 323.048 20.952C322.621 19.416 321.789 18.648 320.551 18.648C319.314 18.648 318.205 19.4587 317.223 21.08C316.242 22.6587 315.752 24.792 315.752 27.48V39.192C315.752 41.0267 316.114 42.584 316.839 43.864C317.565 45.144 318.632 45.784 320.04 45.784C321.448 45.784 322.408 44.8453 322.92 42.968C323.432 41.0907 323.688 37.8053 323.688 33.112V29.784ZM315.624 16.536V21.592C317.288 17.7947 320.232 15.896 324.456 15.896C328.125 15.896 330.962 17.2187 332.968 19.864C335.016 22.5093 336.04 26.52 336.04 31.896C336.04 37.272 334.93 41.24 332.712 43.8C330.536 46.36 327.25 47.64 322.856 47.64C320.808 47.64 319.272 47.384 318.248 46.872C317.224 46.36 316.392 45.5707 315.752 44.504V61.08H324.008V62.232H300.327V61.08H303.848V17.688H300.456V16.536H315.624Z" fill="#88133D"/>
<path d="M323.688 29.784C323.688 25.3893 323.474 22.4453 323.048 20.952C322.621 19.416 321.789 18.648 320.551 18.648C319.314 18.648 318.205 19.4587 317.223 21.08C316.242 22.6587 315.752 24.792 315.752 27.48V39.192C315.752 41.0267 316.114 42.584 316.839 43.864C317.565 45.144 318.632 45.784 320.04 45.784C321.448 45.784 322.408 44.8453 322.92 42.968C323.432 41.0907 323.688 37.8053 323.688 33.112V29.784ZM315.624 16.536V21.592C317.288 17.7947 320.232 15.896 324.456 15.896C328.125 15.896 330.962 17.2187 332.968 19.864C335.016 22.5093 336.04 26.52 336.04 31.896C336.04 37.272 334.93 41.24 332.712 43.8C330.536 46.36 327.25 47.64 322.856 47.64C320.808 47.64 319.272 47.384 318.248 46.872C317.224 46.36 316.392 45.5707 315.752 44.504V61.08H324.008V62.232H300.327V61.08H303.848V17.688H300.456V16.536H315.624Z" fill="#262626"/>
<path d="M323.688 29.784C323.688 25.3893 323.474 22.4453 323.048 20.952C322.621 19.416 321.789 18.648 320.551 18.648C319.314 18.648 318.205 19.4587 317.223 21.08C316.242 22.6587 315.752 24.792 315.752 27.48V39.192C315.752 41.0267 316.114 42.584 316.839 43.864C317.565 45.144 318.632 45.784 320.04 45.784C321.448 45.784 322.408 44.8453 322.92 42.968C323.432 41.0907 323.688 37.8053 323.688 33.112V29.784ZM315.624 16.536V21.592C317.288 17.7947 320.232 15.896 324.456 15.896C328.125 15.896 330.962 17.2187 332.968 19.864C335.016 22.5093 336.04 26.52 336.04 31.896C336.04 37.272 334.93 41.24 332.712 43.8C330.536 46.36 327.25 47.64 322.856 47.64C320.808 47.64 319.272 47.384 318.248 46.872C317.224 46.36 316.392 45.5707 315.752 44.504V61.08H324.008V62.232H300.327V61.08H303.848V17.688H300.456V16.536H315.624Z" fill="black" fill-opacity="0.2"/>
<path d="M323.688 29.784C323.688 25.3893 323.474 22.4453 323.048 20.952C322.621 19.416 321.789 18.648 320.551 18.648C319.314 18.648 318.205 19.4587 317.223 21.08C316.242 22.6587 315.752 24.792 315.752 27.48V39.192C315.752 41.0267 316.114 42.584 316.839 43.864C317.565 45.144 318.632 45.784 320.04 45.784C321.448 45.784 322.408 44.8453 322.92 42.968C323.432 41.0907 323.688 37.8053 323.688 33.112V29.784ZM315.624 16.536V21.592C317.288 17.7947 320.232 15.896 324.456 15.896C328.125 15.896 330.962 17.2187 332.968 19.864C335.016 22.5093 336.04 26.52 336.04 31.896C336.04 37.272 334.93 41.24 332.712 43.8C330.536 46.36 327.25 47.64 322.856 47.64C320.808 47.64 319.272 47.384 318.248 46.872C317.224 46.36 316.392 45.5707 315.752 44.504V61.08H324.008V62.232H300.327V61.08H303.848V17.688H300.456V16.536H315.624Z" fill="#040404" fill-opacity="0.33"/>
<path d="M353.313 31.96H355.169V27.032C355.169 22.9787 354.934 20.2693 354.464 18.904C354.038 17.496 353.184 16.792 351.904 16.792C351.136 16.792 350.432 17.0053 349.792 17.432C349.195 17.816 348.896 18.3707 348.896 19.096C348.896 19.7787 349.025 20.4827 349.281 21.208H350.881C351.222 22.104 351.393 23.192 351.393 24.472C351.393 25.7093 350.859 26.7973 349.792 27.736C348.726 28.632 347.382 29.08 345.761 29.08C342.091 29.08 340.257 27.3093 340.257 23.768C340.257 18.52 344.715 15.896 353.633 15.896C358.71 15.896 362.208 16.7707 364.128 18.52C366.091 20.2267 367.072 23.384 367.072 27.992V40.984C367.072 43.2027 367.691 44.312 368.929 44.312C370.379 44.312 371.233 42.1147 371.489 37.72L372.449 37.784C372.278 41.5387 371.574 44.12 370.337 45.528C369.099 46.936 367.073 47.64 364.257 47.64C359.137 47.64 356.193 46.0613 355.425 42.904C354.87 44.5253 354.038 45.72 352.929 46.488C351.819 47.256 350.198 47.64 348.064 47.64C341.75 47.64 338.593 45.0587 338.593 39.896C338.593 36.8667 339.787 34.7973 342.176 33.688C344.608 32.536 348.321 31.96 353.313 31.96ZM350.753 39.832C350.753 42.0507 350.859 43.48 351.072 44.12C351.328 44.76 351.777 45.08 352.417 45.08C353.099 45.08 353.718 44.5467 354.273 43.48C354.87 42.3707 355.169 40.856 355.169 38.936V32.984H354.721C352.075 32.984 350.753 34.9253 350.753 38.808V39.832Z" fill="#B5104C"/>
<path d="M353.313 31.96H355.169V27.032C355.169 22.9787 354.934 20.2693 354.464 18.904C354.038 17.496 353.184 16.792 351.904 16.792C351.136 16.792 350.432 17.0053 349.792 17.432C349.195 17.816 348.896 18.3707 348.896 19.096C348.896 19.7787 349.025 20.4827 349.281 21.208H350.881C351.222 22.104 351.393 23.192 351.393 24.472C351.393 25.7093 350.859 26.7973 349.792 27.736C348.726 28.632 347.382 29.08 345.761 29.08C342.091 29.08 340.257 27.3093 340.257 23.768C340.257 18.52 344.715 15.896 353.633 15.896C358.71 15.896 362.208 16.7707 364.128 18.52C366.091 20.2267 367.072 23.384 367.072 27.992V40.984C367.072 43.2027 367.691 44.312 368.929 44.312C370.379 44.312 371.233 42.1147 371.489 37.72L372.449 37.784C372.278 41.5387 371.574 44.12 370.337 45.528C369.099 46.936 367.073 47.64 364.257 47.64C359.137 47.64 356.193 46.0613 355.425 42.904C354.87 44.5253 354.038 45.72 352.929 46.488C351.819 47.256 350.198 47.64 348.064 47.64C341.75 47.64 338.593 45.0587 338.593 39.896C338.593 36.8667 339.787 34.7973 342.176 33.688C344.608 32.536 348.321 31.96 353.313 31.96ZM350.753 39.832C350.753 42.0507 350.859 43.48 351.072 44.12C351.328 44.76 351.777 45.08 352.417 45.08C353.099 45.08 353.718 44.5467 354.273 43.48C354.87 42.3707 355.169 40.856 355.169 38.936V32.984H354.721C352.075 32.984 350.753 34.9253 350.753 38.808V39.832Z" fill="#88133D"/>
<path d="M353.313 31.96H355.169V27.032C355.169 22.9787 354.934 20.2693 354.464 18.904C354.038 17.496 353.184 16.792 351.904 16.792C351.136 16.792 350.432 17.0053 349.792 17.432C349.195 17.816 348.896 18.3707 348.896 19.096C348.896 19.7787 349.025 20.4827 349.281 21.208H350.881C351.222 22.104 351.393 23.192 351.393 24.472C351.393 25.7093 350.859 26.7973 349.792 27.736C348.726 28.632 347.382 29.08 345.761 29.08C342.091 29.08 340.257 27.3093 340.257 23.768C340.257 18.52 344.715 15.896 353.633 15.896C358.71 15.896 362.208 16.7707 364.128 18.52C366.091 20.2267 367.072 23.384 367.072 27.992V40.984C367.072 43.2027 367.691 44.312 368.929 44.312C370.379 44.312 371.233 42.1147 371.489 37.72L372.449 37.784C372.278 41.5387 371.574 44.12 370.337 45.528C369.099 46.936 367.073 47.64 364.257 47.64C359.137 47.64 356.193 46.0613 355.425 42.904C354.87 44.5253 354.038 45.72 352.929 46.488C351.819 47.256 350.198 47.64 348.064 47.64C341.75 47.64 338.593 45.0587 338.593 39.896C338.593 36.8667 339.787 34.7973 342.176 33.688C344.608 32.536 348.321 31.96 353.313 31.96ZM350.753 39.832C350.753 42.0507 350.859 43.48 351.072 44.12C351.328 44.76 351.777 45.08 352.417 45.08C353.099 45.08 353.718 44.5467 354.273 43.48C354.87 42.3707 355.169 40.856 355.169 38.936V32.984H354.721C352.075 32.984 350.753 34.9253 350.753 38.808V39.832Z" fill="#262626"/>
<path d="M353.313 31.96H355.169V27.032C355.169 22.9787 354.934 20.2693 354.464 18.904C354.038 17.496 353.184 16.792 351.904 16.792C351.136 16.792 350.432 17.0053 349.792 17.432C349.195 17.816 348.896 18.3707 348.896 19.096C348.896 19.7787 349.025 20.4827 349.281 21.208H350.881C351.222 22.104 351.393 23.192 351.393 24.472C351.393 25.7093 350.859 26.7973 349.792 27.736C348.726 28.632 347.382 29.08 345.761 29.08C342.091 29.08 340.257 27.3093 340.257 23.768C340.257 18.52 344.715 15.896 353.633 15.896C358.71 15.896 362.208 16.7707 364.128 18.52C366.091 20.2267 367.072 23.384 367.072 27.992V40.984C367.072 43.2027 367.691 44.312 368.929 44.312C370.379 44.312 371.233 42.1147 371.489 37.72L372.449 37.784C372.278 41.5387 371.574 44.12 370.337 45.528C369.099 46.936 367.073 47.64 364.257 47.64C359.137 47.64 356.193 46.0613 355.425 42.904C354.87 44.5253 354.038 45.72 352.929 46.488C351.819 47.256 350.198 47.64 348.064 47.64C341.75 47.64 338.593 45.0587 338.593 39.896C338.593 36.8667 339.787 34.7973 342.176 33.688C344.608 32.536 348.321 31.96 353.313 31.96ZM350.753 39.832C350.753 42.0507 350.859 43.48 351.072 44.12C351.328 44.76 351.777 45.08 352.417 45.08C353.099 45.08 353.718 44.5467 354.273 43.48C354.87 42.3707 355.169 40.856 355.169 38.936V32.984H354.721C352.075 32.984 350.753 34.9253 350.753 38.808V39.832Z" fill="black" fill-opacity="0.2"/>
<path d="M353.313 31.96H355.169V27.032C355.169 22.9787 354.934 20.2693 354.464 18.904C354.038 17.496 353.184 16.792 351.904 16.792C351.136 16.792 350.432 17.0053 349.792 17.432C349.195 17.816 348.896 18.3707 348.896 19.096C348.896 19.7787 349.025 20.4827 349.281 21.208H350.881C351.222 22.104 351.393 23.192 351.393 24.472C351.393 25.7093 350.859 26.7973 349.792 27.736C348.726 28.632 347.382 29.08 345.761 29.08C342.091 29.08 340.257 27.3093 340.257 23.768C340.257 18.52 344.715 15.896 353.633 15.896C358.71 15.896 362.208 16.7707 364.128 18.52C366.091 20.2267 367.072 23.384 367.072 27.992V40.984C367.072 43.2027 367.691 44.312 368.929 44.312C370.379 44.312 371.233 42.1147 371.489 37.72L372.449 37.784C372.278 41.5387 371.574 44.12 370.337 45.528C369.099 46.936 367.073 47.64 364.257 47.64C359.137 47.64 356.193 46.0613 355.425 42.904C354.87 44.5253 354.038 45.72 352.929 46.488C351.819 47.256 350.198 47.64 348.064 47.64C341.75 47.64 338.593 45.0587 338.593 39.896C338.593 36.8667 339.787 34.7973 342.176 33.688C344.608 32.536 348.321 31.96 353.313 31.96ZM350.753 39.832C350.753 42.0507 350.859 43.48 351.072 44.12C351.328 44.76 351.777 45.08 352.417 45.08C353.099 45.08 353.718 44.5467 354.273 43.48C354.87 42.3707 355.169 40.856 355.169 38.936V32.984H354.721C352.075 32.984 350.753 34.9253 350.753 38.808V39.832Z" fill="#040404" fill-opacity="0.33"/>
</svg>
